<?xml version="1.0" encoding="UTF-8"?> <!-- Generator: Adobe Illustrator 24.0.2, SVG Export Plug-In . SVG Version: 6.00 Build 0) --> <svg xmlns="http://www.w3.org/2000/svg" xmlns:xlink="http://www.w3.org/1999/xlink" version="1.1" id="Layer_1" x="0px" y="0px" viewBox="0 0 839 286" style="enable-background:new 0 0 839 286;" xml:space="preserve"> <style type="text/css"> .st0{fill-rule:evenodd;clip-rule:evenodd;fill:#FFFFFF;} </style> <g> <g> <g> <path class="st0" d="M394.7,240.1c25.7-4.8,52.5-10.5,80-17.1c15.2-3.7,30.3-7.6,45-11.6l-1.9-3.5c-28.5,8.8-58.3,17-88.9,24.4 C417.4,235.1,406,237.7,394.7,240.1L394.7,240.1z M559.1,200c13.9-4.2,27.5-8.6,40.7-13v-7.1c-12.9,4.9-26.2,9.7-39.9,14.4 L559.1,200L559.1,200z M627.7,177.2c14.1-5.1,27.7-10.3,40.8-15.6v-10.7c-12.8,6-26.5,12-40.8,17.9V177.2L627.7,177.2z M695.8,150.1c2.7-1.2,5.5-2.4,8.1-3.6h-8.1V150.1L695.8,150.1z M747.3,125.2c57-30.4,91.7-60.7,91.7-84.6 c0-48.9-145-53.9-330.2-13.4C671.5-2.9,793.2,5,793.2,49.9c0,7.5-3.5,15.7-10,24.3v0l0.1,0.2l0,0l0,0l0,0l0,0.1l0,0v0l0,0.1v0 l0,0.1l0,0l0,0l0,0l0.1,0.4l0,0l0,0l0.1,0.4l0,0v0v0l0,0.1l0,0l0,0l0,0v0l0,0l0,0v0l0,0.1v0v0l0,0v0l0,0.1l0,0.1v0v0l0,0l0,0.2v0 l0,0v0l0,0.1l0,0.1l0,0.1v0v0v0l0,0.1v0.2l0,0v0v0v0.1v0v0l0,0.1c0,2.4-0.6,4.6-1.9,6.5c-1.3,1.9-2.9,3.5-5.1,4.6 c-2.1,1.1-4.4,1.7-6.9,1.7h0h0h0h0h0h0h0h0h0h0h0h0h0h0h0h0h0l0,0h0h0l-0.1,0h0l-0.2,0h0h0c-0.2,0-0.5,0-0.7-0.1 c-10.7,9.7-24.7,19.7-41.3,29.9h20.4V125.2L747.3,125.2z M780.9,77.1l0,0.1l0,0.1v0.1v0.1c0,2-0.5,3.8-1.5,5.4 c-1,1.6-2.3,2.9-4,3.8l-0.1,0l0,0l-0.1,0l0,0l-0.1,0l0,0l0,0l0,0l-0.2,0.1l0,0l-0.1,0v0l-0.1,0h0l-0.1,0l0,0l-0.1,0l0,0l-0.1,0 l0,0l-0.1,0l0,0l-0.1,0l0,0l-0.1,0l0,0l-0.2,0.1l0,0l-0.2,0.1l0,0l0,0l-0.1,0h0l0,0l-0.1,0l0,0l-0.1,0l0,0l0,0l-0.1,0l0,0l0,0 l0,0l0,0l0,0l0,0l-0.1,0l0,0c-0.2,0.1-0.4,0.1-0.6,0.1l0,0c-0.2,0-0.4,0.1-0.6,0.1l0,0l-0.1,0l0,0c-0.2,0-0.5,0.1-0.7,0.1l0,0h0 h0l-0.1,0h0l-0.1,0h0l-0.1,0l-0.1,0h0c1.2-1.1,2.3-2.2,3.4-3.3h2.6l-1.1-1.6C777.4,81.2,779.2,79.1,780.9,77.1z"></path> <path class="st0" d="M444.3,45.9c-20.2,3.7-41,8-62.3,12.9c1,0.4,1.9,0.8,2.9,1.3c8.3-2.2,16.7-4.3,25.2-6.3 C421.6,50.9,433,48.3,444.3,45.9L444.3,45.9z M269.1,89.3c-4.6,1.5-9.3,2.9-13.8,4.4c0.6,1.7,1,3.6,1.4,5.4l-0.4,0.7 c2.3-0.8,4.6-1.7,7-2.5C265.1,94.6,267,91.9,269.1,89.3L269.1,89.3z M229.6,102.3c-10.4,3.6-20.5,7.2-30.4,10.9v9 c10.2-4.3,20.8-8.6,31.7-12.9v-0.4C231,106.4,230.5,104.2,229.6,102.3L229.6,102.3z M171.8,123.9c-13.3,5.3-25.9,10.8-38,16.2 c0.4,0.4,0.7,0.7,0.9,0.9c2.8,2.8,5.1,5.5,7.1,8.2c9.4-4.9,19.4-9.9,30-14.8V123.9L171.8,123.9z M106.6,153.1 C40.8,186.1,0,219.5,0,245.4c0,48.9,145,53.9,330.1,13.4C167.4,288.9,45.8,281,45.8,236.2c0-11.5,8-24.5,22.7-38.2 c-3.3-4-6.4-8.7-9.1-14.2l23.1-13.9c2.4,4.3,4.9,8,7.5,10.8c8.1-5.8,17.3-11.7,27.4-17.7C114.9,160.3,111.4,157.1,106.6,153.1z"></path> </g> <g> <path class="st0" d="M769.8,90.2L769.8,90.2l0-2.1h0c2,0,3.9-0.5,5.6-1.4c1.7-0.9,3-2.2,4-3.8c1-1.6,1.5-3.4,1.5-5.4 c0-1.5-0.3-2.9-0.8-4.2c-0.6-1.3-1.4-2.4-2.4-3.4c-1-1-2.2-1.7-3.6-2.2c-1.4-0.5-2.8-0.8-4.3-0.8h0v-2.1h0c1.8,0,3.6,0.3,5.3,0.9 c1.7,0.6,3.2,1.5,4.5,2.7c1.3,1.1,2.3,2.5,3,4.1c0.7,1.6,1.1,3.2,1.1,5c0,2.4-0.6,4.6-1.9,6.5c-1.3,1.9-2.9,3.5-5.1,4.6 C774.5,89.7,772.2,90.2,769.8,90.2L769.8,90.2z M769.8,78.6l4,6.2h2.7l-4.5-6.4c1.2-0.2,2.2-0.6,2.9-1.2c0.7-0.7,1.1-1.6,1.1-2.8 c0-1.4-0.5-2.5-1.4-3.2c-0.9-0.7-2.3-1-4.1-1h-0.8V72h0.4c2.3,0,3.5,0.7,3.5,2.2c0,1-0.3,1.7-1,2c-0.7,0.3-1.6,0.5-2.9,0.5h0 V78.6z M769.8,90.2c-1.9,0-3.6-0.3-5.3-1c-1.7-0.6-3.2-1.5-4.5-2.7c-1.3-1.2-2.3-2.5-3-4.1c-0.7-1.6-1.1-3.2-1.1-5 c0-1.8,0.4-3.4,1.1-5c0.7-1.6,1.7-2.9,3-4.1c1.3-1.1,2.8-2,4.5-2.7c1.7-0.6,3.5-1,5.3-1v2.1c-1.5,0-3,0.3-4.3,0.8 c-1.3,0.5-2.5,1.3-3.6,2.2c-1,1-1.8,2.1-2.4,3.4c-0.6,1.3-0.8,2.7-0.8,4.2c0,2,0.5,3.8,1.5,5.4c1,1.6,2.3,2.9,4,3.8 c1.7,0.9,3.6,1.4,5.6,1.4V90.2L769.8,90.2z M769.8,70.2h-5.3v14.6h2.4v-6.4h2.7l0.1,0.2v-2.1h-2.9V72h2.9V70.2z"></path> <path class="st0" d="M147.5,86.7l-20.3,17.9c-7.1-9.9-14.4-14.9-21.8-14.9c-3.6,0-6.5,1-8.8,2.9c-2.3,1.9-3.4,4.1-3.4,6.5 c0,2.4,0.8,4.7,2.5,6.9c2.2,2.8,8.9,9,20.1,18.5c10.4,8.8,16.8,14.3,19,16.6c5.6,5.6,9.5,11,11.8,16.1c2.3,5.2,3.5,10.7,3.5,16.8 c0,11.8-4.1,21.6-12.3,29.3c-8.2,7.7-18.9,11.6-32,11.6c-10.3,0-19.2-2.5-26.8-7.5c-7.6-5.1-14.2-13-19.6-23.7l23.1-13.9 c6.9,12.8,14.9,19.1,23.9,19.1c4.7,0,8.7-1.4,11.9-4.1c3.2-2.7,4.8-5.9,4.8-9.5c0-3.3-1.2-6.5-3.6-9.8c-2.4-3.3-7.7-8.3-16-15 c-15.7-12.8-25.9-22.7-30.5-29.7c-4.5-7-6.9-13.9-6.9-20.8c0-10,3.8-18.6,11.5-25.8c7.6-7.2,17-10.8,28.2-10.8 c7.2,0,14,1.7,20.6,5C132.9,71.7,139.9,77.8,147.5,86.7z"></path> <path class="st0" d="M171.8,67h29.1c15.8,0,27.1,1.5,34.1,4.4c7,2.9,12.5,7.6,16.5,14.1c2.5,4,4.2,8.6,5.2,13.6 c-7,12.3-11.2,25.8-12.5,40.5c-4.4,3.7-9.8,6.5-16,8.3c-5.3,1.5-14.9,2.3-28.9,2.3v61.1h-27.5V67L171.8,67z M199.3,123.5h8.7 c6.9,0,11.7-0.5,14.3-1.5c2.7-1,4.8-2.6,6.3-4.9c1.5-2.2,2.3-5,2.3-8.2c0-5.6-2.2-9.6-6.5-12.2c-3.1-1.9-9-2.8-17.5-2.8h-7.7 V123.5z"></path> <polygon class="st0" points="668.5,67 747.3,67 747.3,93.9 695.8,93.9 695.8,120 747.3,120 747.3,146.4 695.8,146.4 695.8,184.4 747.3,184.4 747.3,211.4 668.5,211.4 "></polygon> <polygon class="st0" points="580.8,67 654,67 654,94.1 627.7,94.1 627.7,211.4 599.8,211.4 599.8,94.1 577.1,94.1 "></polygon> <g> <path class="st0" d="M348,52.4c23.7,0,43.2,7.6,58.6,22.9c15.4,15.2,23.1,34.6,23.1,58.1c0,18-4.6,34.9-13.7,50.8 c-9.1,15.9-21.2,28.1-36.3,36.6c-15.1,8.5-32.5,12.8-52.1,12.8c-24.5,0-44.1-7.2-58.8-21.8c-14.7-14.5-22-33.7-22-57.4 c0-27,8.8-50.1,26.3-69.5C292.6,63.2,317.6,52.4,348,52.4L348,52.4z M346.8,83.1c-12.3,0-23.6,3-33.8,9 c-10.2,6-18.4,14.6-24.7,25.8c-6.2,11.3-9.4,22.8-9.4,34.8c0,14.1,4.3,26.1,13,36c8.7,9.8,21.1,14.8,37.4,14.8 c18.8,0,34.8-6.6,48-20c13.2-13.3,19.8-29.4,19.8-48.4c0-15.7-4.6-28.3-13.9-37.8C373.9,87.8,361.8,83.1,346.8,83.1z"></path> <polygon class="st0" points="440.5,54.2 468.9,54.2 531.4,171.4 547.2,54.2 578.7,54.2 555.5,226.7 527.9,226.7 464.5,108.1 448.7,226.7 417.6,226.7 "></polygon> </g> </g> </g> </g> </svg> 